<mxfile host="app.diagrams.net" modified="2023-07-26T02:24:23.413Z" agent="Mozilla/5.0 (Windows NT 10.0; Win64; x64) AppleWebKit/537.36 (KHTML, like Gecko) Chrome/115.0.0.0 Safari/537.36" version="21.3.3" etag="41DDpPgyNbznXJ4vPo4l" type="github">
  <diagram name="第 1 页" id="ipUEWOe_VKYqO1_8zkRU">
    <mxGraphModel>
      <root>
        <mxCell id="0" />
        <mxCell id="1" parent="0" />
      </root>
    </mxGraphModel>
  </diagram>
</mxfile>
